<?xml version="1.0" encoding="utf-8"?>
<svg version="1.1" id="Layer_1" xmlns="http://www.w3.org/2000/svg" xmlns:xlink="http://www.w3.org/1999/xlink" x="0px" y="0px"
	 viewBox="0 0 234.5 75.5" style="enable-background:new 0 0 234.5 75.5;" xml:space="preserve">
<g>
	<g>
		<path d="M120.5,25c-2.6,0-4.1,2-4.3,3.9h8.6C124.8,26.9,123.4,25,120.5,25z"/>
		<path d="M179.1,25.3c-2.6,0-4.9,1.9-4.9,5.5s2.3,5.6,4.9,5.6c2.6,0,4.9-1.9,4.9-5.6C184,27.2,181.7,25.3,179.1,25.3z"/>
	</g>
	<g>
		<path d="M197.1,49.1c-1.5,0-2.7,1.2-2.7,3.1c0,1.9,1.1,3.1,2.7,3.1c1.6,0,2.7-1.2,2.7-3.1S198.7,49.1,197.1,49.1z"/>
		<g>
			<path d="M229.8,0H4.8C2.1,0,0,2.1,0,4.8v66c0,2.6,2.1,4.8,4.8,4.8h225c2.6,0,4.8-2.1,4.8-4.8v-66C234.5,2.1,232.4,0,229.8,0z
				 M17,14.7c2.7,0.6,5.5,0.9,8.2,1.1c4.1,0.3,8.1,0.3,12.2,0.1c3.3-0.2,6.7-0.5,9.9-1.2c1.4,1.8,2.5,3.7,3.5,5.8
				c-1.1,0.4-2.3,0.7-3.5,1c-3.3,0.7-6.8,1-10.2,1.1c-2.3,0.1-4.6,0.2-6.9,0.1c-3.2-0.1-6.3-0.2-9.4-0.6c-2.4-0.3-4.9-0.7-7.2-1.6
				C14.5,18.4,15.6,16.5,17,14.7z M47.3,60.8c-4.1-1-8.5-1.3-12.8-1.4c-5.7-0.1-11.9,0-17.5,1.4C15.6,59,14.5,57,13.6,55
				c3.5-1.3,7.4-1.7,11-2c5.3-0.4,10.7-0.4,16,0.1c3.4,0.3,7,0.7,10.2,1.9C49.8,57,48.8,59,47.3,60.8z M52.1,51.6
				c-1.6-0.5-3.2-0.9-4.9-1.2c-4-0.7-8.1-0.9-12.2-1c-4.6-0.1-9.2,0-13.8,0.5c-3.1,0.3-6,0.8-9,1.7c-0.7-2.1-1.2-4.3-1.5-6.5
				c4.5-1.2,9-1.8,13.6-2.1c4-0.3,8-0.3,12-0.2c5.8,0.2,11.5,0.8,17.1,2.3C53.2,47.4,52.7,49.5,52.1,51.6z M28.9,32.7
				c-6.1-0.2-12.1-0.8-18.1-2.4c0.2-1.5,0.5-3,0.9-4.4c0.2-0.7,0.3-1.3,0.6-2c0.8,0.1,1.5,0.4,2.2,0.6c3.4,0.8,7,1.1,10.4,1.4
				c5.9,0.4,11.9,0.3,17.8-0.3c3.1-0.3,6.3-0.8,9.3-1.7c0.7,2.1,1.2,4.3,1.5,6.5C45.6,32.4,37.1,32.8,28.9,32.7z M77.4,40.2
				c-6.9,0-12.9-5-12.9-13.3s6.2-13.3,12.9-13.3c6.5,0,10.3,3.8,11.5,8.3l-4.1,1.4c-0.8-3.1-3.1-5.6-7.4-5.6c-4.2,0-8.4,3.1-8.4,9.3
				c0,6,4.1,9.2,8.5,9.2c4.3,0,6.7-2.7,7.6-5.6l4,1.3C87.8,36,83.9,40.2,77.4,40.2z M108.3,39.6h-4.2V29.3c0-2.2-1-3.9-3.6-3.9
				c-2.3,0-3.6,1.7-3.6,4v10.3h-4.2V13.6h4.2v10.2c1.2-1.5,3.2-2.2,5-2.2c4.3,0,6.4,3.1,6.4,7C108.3,28.6,108.3,39.6,108.3,39.6z
				 M112,30.8c0-5.5,4.1-9.2,8.5-9.2c5.4,0,8.6,3.6,8.6,9.1c0,0.7-0.1,1.3-0.1,1.3h-12.8c0.1,2.7,2.2,4.6,4.8,4.6
				c2.5,0,3.8-1.3,4.4-3.1l3.5,1.1c-0.9,3.1-3.7,5.5-7.9,5.5C116.2,40.2,112,36.7,112,30.8z M128,57.1h-2.4l-2.5-7.1l-2.4,7.1h-2.4
				l-3.2-9.9h2.5l2,6.8l2.3-6.8h2.4l2.3,6.8l2-6.8h2.4L128,57.1z M140.7,21.5c4.7,0,7.3,3,8,5.8l-3.7,1.4c-0.4-1.5-1.6-3.3-4.3-3.3
				c-2.6,0-4.8,1.9-4.8,5.4s2.3,5.5,4.9,5.5c2.7,0,4-1.9,4.4-3.2l3.7,1.3c-0.8,2.7-3.5,5.7-8.1,5.7c-5.2,0-9.1-4-9.1-9.3
				C131.7,25.4,135.6,21.5,140.7,21.5z M135.2,57.1h-2.3v-9.9h2.3V57.1z M134,45.2c-0.8,0-1.5-0.7-1.5-1.5c0-0.9,0.7-1.5,1.5-1.5
				c0.9,0,1.5,0.7,1.5,1.5C135.6,44.6,134.9,45.2,134,45.2z M143.3,57c-0.1,0.1-0.6,0.2-1.4,0.2c-1.8,0-3-1.1-3-2.9v-5h-1.8v-2.1
				h0.5c1.1,0,1.5-0.7,1.5-1.5v-1.5h2.1v3h2v2.1h-2v4.6c0,0.9,0.4,1.2,1.3,1.2c0.3,0,0.7-0.1,0.8-0.1L143.3,57L143.3,57z
				 M154.2,57.1h-2.4v-5.9c0-1.2-0.5-2.2-2-2.2c-1.3,0-2,1-2,2.2V57h-2.4V42.4h2.4v5.8c0.7-0.9,1.8-1.2,2.8-1.2
				c2.4,0,3.6,1.7,3.6,3.9L154.2,57.1L154.2,57.1z M156.7,34.7v4.9h-4.1v-26h4.1v15.6l6.7-7.1h5.5l-7.2,7.4l7.3,10.1h-5l-5.2-7.2
				L156.7,34.7z M166.4,57.4c-2.9,0-5.1-2.3-5.1-5.3s2.2-5.2,5.1-5.2c2.7,0,4.1,1.7,4.5,3.3l-2.1,0.8c-0.2-0.9-0.9-1.8-2.4-1.8
				c-1.4,0-2.7,1.1-2.7,3.1s1.3,3.1,2.8,3.1s2.3-1.1,2.5-1.8l2.1,0.8C170.5,55.7,169,57.4,166.4,57.4z M178.8,49.5
				c-0.3,0-0.5-0.1-0.8-0.1c-1.8,0-2.7,1.1-2.7,2.9V57H173v-9.9h2.3v1.6c0.5-1.1,1.6-1.7,2.9-1.7c0.3,0,0.5,0,0.6,0.1V49.5z
				 M170,30.8c0-5.4,3.9-9.3,9.1-9.3c5.3,0,9.1,3.9,9.1,9.3s-3.9,9.3-9.1,9.3C173.8,40.2,170,36.2,170,30.8z M184.1,61.1h-2.5
				l2.4-5.2l-4.2-8.7h2.7l2.8,6.3l2.7-6.3h2.5L184.1,61.1z M191.9,22.1h4.2v10.3c0,2.2,1,4,3.5,4c2.4,0,3.7-1.6,3.7-3.9V22.1h4.2
				v14.3c0,1.4,0.1,2.6,0.2,3.2h-4c-0.1-0.4-0.1-1.2-0.1-1.9c-0.9,1.6-2.9,2.4-5,2.4c-4.2,0-6.6-3.1-6.6-7L191.9,22.1L191.9,22.1z
				 M197.5,57.3c-1.4,0-2.5-0.6-3-1.4v5h-2.3V47.2h2.3v1.3c0.5-0.9,1.6-1.6,3.1-1.6c2.9,0,4.6,2.2,4.6,5.2
				C202.1,55.1,200.3,57.3,197.5,57.3z M209.4,57c-0.1,0.1-0.6,0.2-1.4,0.2c-1.8,0-3-1.1-3-2.9v-5h-1.8v-2.1h0.5
				c1.1,0,1.5-0.7,1.5-1.5v-1.5h2.1v3h2v2.1h-2v4.6c0,0.9,0.4,1.2,1.3,1.2c0.3,0,0.7-0.1,0.8-0.1L209.4,57L209.4,57z M216,57.4
				c-2.9,0-5.1-2.2-5.1-5.3c0-3,2.2-5.2,5.1-5.2c3,0,5.1,2.2,5.1,5.2C221.1,55.2,219,57.4,216,57.4z M221.9,39.4
				c-0.3,0.1-1,0.4-2.6,0.4c-3.2,0-5.3-1.9-5.3-5.2v-8.8h-3.2v-3.7h0.9c1.9,0,2.7-1.2,2.7-2.7v-2.6h3.8v5.4h3.6v3.7h-3.6V34
				c0,1.5,0.7,2.2,2.2,2.2c0.6,0,1.3-0.1,1.4-0.1v3.3H221.9z"/>
			<path d="M216,49c-1.4,0-2.8,1.1-2.8,3.1c0,2.1,1.3,3.2,2.8,3.2s2.8-1.1,2.8-3.2C218.8,50.1,217.5,49,216,49z"/>
		</g>
	</g>
</g>
</svg>
