<?xml version="1.0" encoding="utf-8"?>
<svg version="1.1" id="Layer_1" xmlns="http://www.w3.org/2000/svg" xmlns:xlink="http://www.w3.org/1999/xlink" x="0px" y="0px"
	 viewBox="0 0 23.2 7.5" style="enable-background:new 0 0 23.2 7.5;" xml:space="preserve">
<g>
	<g>
		<path d="M12,2.5c-0.3,0-0.4,0.2-0.4,0.4h0.9C12.4,2.7,12.3,2.5,12,2.5z"/>
		<path d="M19.8,5.1c-0.2,0-0.3,0.1-0.3,0.3c0,0.2,0.1,0.3,0.3,0.3c0.2,0,0.3-0.1,0.3-0.3C20.1,5.2,20,5.1,19.8,5.1z"/>
		<path d="M17.8,3.6c0.3,0,0.5-0.2,0.5-0.6c0-0.4-0.2-0.5-0.5-0.5c-0.3,0-0.5,0.2-0.5,0.5C17.3,3.4,17.5,3.6,17.8,3.6z"/>
		<path d="M21.7,5.1c-0.1,0-0.3,0.1-0.3,0.3c0,0.2,0.1,0.3,0.3,0.3c0.1,0,0.3-0.1,0.3-0.3C22,5.2,21.8,5.1,21.7,5.1z"/>
	</g>
	<path d="M22.8,0H0.5C0.2,0,0,0.2,0,0.5V7c0,0.3,0.2,0.5,0.5,0.5h22.3c0.3,0,0.5-0.2,0.5-0.5V0.5C23.2,0.2,23,0,22.8,0z M21,2.2
		L21,2.2c0.3,0,0.4-0.1,0.4-0.3V1.7h0.4v0.5H22v0.4h-0.4v0.8c0,0.2,0.1,0.2,0.2,0.2c0.1,0,0.1,0,0.1,0v0.3c0,0-0.1,0-0.3,0
		c-0.3,0-0.5-0.2-0.5-0.5V2.6H21V2.2z M17.8,2.1c0.5,0,0.9,0.4,0.9,0.9c0,0.5-0.4,0.9-0.9,0.9c-0.5,0-0.9-0.4-0.9-0.9
		C16.9,2.5,17.3,2.1,17.8,2.1z M1.7,1.5C2,1.5,2.2,1.5,2.5,1.6c0.4,0,0.8,0,1.2,0c0.3,0,0.7,0,1-0.1C4.8,1.6,4.9,1.8,5,2
		c-0.1,0-0.2,0.1-0.3,0.1C4.4,2.2,4,2.2,3.7,2.2c-0.2,0-0.5,0-0.7,0c-0.3,0-0.6,0-0.9-0.1C1.8,2.2,1.6,2.1,1.3,2
		C1.4,1.8,1.5,1.6,1.7,1.5z M4.7,6C4.3,5.9,3.8,5.9,3.4,5.9c-0.6,0-1.2,0-1.7,0.1C1.5,5.8,1.4,5.7,1.3,5.4c0.3-0.1,0.7-0.2,1.1-0.2
		c0.5,0,1.1,0,1.6,0c0.3,0,0.7,0.1,1,0.2C4.9,5.7,4.8,5.8,4.7,6z M5.2,5.1C5,5.1,4.8,5,4.7,5C4.3,4.9,3.9,4.9,3.5,4.9
		c-0.5,0-0.9,0-1.4,0C1.8,5,1.5,5,1.2,5.1C1.2,4.9,1.1,4.7,1.1,4.5C1.5,4.4,2,4.3,2.4,4.3c0.4,0,0.8,0,1.2,0c0.6,0,1.1,0.1,1.7,0.2
		C5.3,4.7,5.2,4.9,5.2,5.1z M2.9,3.2C2.3,3.2,1.7,3.2,1.1,3c0-0.1,0.1-0.3,0.1-0.4c0-0.1,0-0.1,0.1-0.2c0.1,0,0.1,0,0.2,0.1
		c0.3,0.1,0.7,0.1,1,0.1c0.6,0,1.2,0,1.8,0c0.3,0,0.6-0.1,0.9-0.2C5.2,2.6,5.3,2.8,5.3,3C4.5,3.2,3.7,3.3,2.9,3.2z M7.7,4
		C7,4,6.4,3.5,6.4,2.7c0-0.8,0.6-1.3,1.3-1.3c0.6,0,1,0.4,1.1,0.8L8.5,2.3C8.4,2,8.1,1.7,7.7,1.7c-0.4,0-0.8,0.3-0.8,0.9
		c0,0.6,0.4,0.9,0.8,0.9c0.4,0,0.7-0.3,0.8-0.6l0.4,0.1C8.8,3.6,8.4,4,7.7,4z M10.8,3.9h-0.4v-1c0-0.2-0.1-0.4-0.4-0.4
		c-0.2,0-0.4,0.2-0.4,0.4v1H9.2V1.3h0.4v1c0.1-0.2,0.3-0.2,0.5-0.2c0.4,0,0.6,0.3,0.6,0.7V3.9z M11.2,3.1c0-0.5,0.4-0.9,0.8-0.9
		c0.5,0,0.8,0.4,0.8,0.9c0,0.1,0,0.1,0,0.1h-1.3c0,0.3,0.2,0.5,0.5,0.5c0.2,0,0.4-0.1,0.4-0.3l0.3,0.1C12.7,3.7,12.5,4,12,4
		C11.6,4,11.2,3.6,11.2,3.1z M12.9,5.9h-0.2l-0.2-0.7l-0.2,0.7H12l-0.3-1h0.2l0.2,0.7l0.2-0.7h0.2l0.2,0.7L13,4.9h0.2L12.9,5.9z
		 M13.7,5.9h-0.2v-1h0.2V5.9z M13.6,4.7c-0.1,0-0.2-0.1-0.2-0.2s0.1-0.2,0.2-0.2c0.1,0,0.2,0.1,0.2,0.2S13.6,4.7,13.6,4.7z
		 M14.5,5.9c0,0-0.1,0-0.1,0c-0.2,0-0.3-0.1-0.3-0.3V5.1h-0.2V4.9h0.1c0.1,0,0.2-0.1,0.2-0.2V4.6h0.2v0.3h0.2v0.2h-0.2v0.5
		c0,0.1,0,0.1,0.1,0.1c0,0,0.1,0,0.1,0V5.9z M14,4c-0.5,0-0.9-0.4-0.9-0.9c0-0.5,0.4-0.9,0.9-0.9c0.5,0,0.7,0.3,0.8,0.6l-0.4,0.1
		c0-0.2-0.2-0.3-0.4-0.3c-0.3,0-0.5,0.2-0.5,0.5c0,0.3,0.2,0.5,0.5,0.5c0.3,0,0.4-0.2,0.4-0.3l0.4,0.1C14.7,3.7,14.5,4,14,4z
		 M15.6,5.9h-0.2V5.3c0-0.1-0.1-0.2-0.2-0.2c-0.1,0-0.2,0.1-0.2,0.2v0.6h-0.2V4.4h0.2V5c0.1-0.1,0.2-0.1,0.3-0.1
		c0.2,0,0.4,0.2,0.4,0.4V5.9z M15.6,3.4v0.5h-0.4V1.3h0.4v1.5l0.7-0.7h0.5l-0.7,0.7l0.7,1h-0.5l-0.5-0.7L15.6,3.4z M16.8,5.9
		c-0.3,0-0.5-0.2-0.5-0.5c0-0.3,0.2-0.5,0.5-0.5c0.3,0,0.4,0.2,0.4,0.3L17,5.3c0-0.1-0.1-0.2-0.2-0.2c-0.1,0-0.3,0.1-0.3,0.3
		c0,0.2,0.1,0.3,0.3,0.3c0.2,0,0.2-0.1,0.2-0.2l0.2,0.1C17.2,5.8,17,5.9,16.8,5.9z M18,5.2C18,5.2,17.9,5.1,18,5.2
		c-0.3,0-0.3,0.1-0.3,0.3v0.5h-0.2v-1h0.2v0.2c0-0.1,0.2-0.2,0.3-0.2c0,0,0.1,0,0.1,0V5.2z M18.5,6.3h-0.2l0.2-0.5l-0.4-0.9h0.3
		l0.3,0.6l0.3-0.6h0.2L18.5,6.3z M19.1,3.3V2.2h0.4v1c0,0.2,0.1,0.4,0.3,0.4c0.2,0,0.4-0.2,0.4-0.4v-1h0.4v1.4c0,0.1,0,0.3,0,0.3
		h-0.4c0,0,0-0.1,0-0.2C20.1,3.9,19.9,4,19.7,4C19.3,4,19.1,3.7,19.1,3.3z M19.8,5.9c-0.1,0-0.2-0.1-0.3-0.1v0.5h-0.2V4.9h0.2v0.1
		c0-0.1,0.2-0.2,0.3-0.2c0.3,0,0.5,0.2,0.5,0.5C20.3,5.7,20.1,5.9,19.8,5.9z M21,5.9c0,0-0.1,0-0.1,0c-0.2,0-0.3-0.1-0.3-0.3V5.1
		h-0.2V4.9h0.1c0.1,0,0.2-0.1,0.2-0.2V4.6h0.2v0.3H21v0.2h-0.2v0.5c0,0.1,0,0.1,0.1,0.1c0,0,0.1,0,0.1,0V5.9z M21.7,5.9
		c-0.3,0-0.5-0.2-0.5-0.5c0-0.3,0.2-0.5,0.5-0.5c0.3,0,0.5,0.2,0.5,0.5C22.2,5.7,22,5.9,21.7,5.9z"/>
</g>
</svg>
